<svg xmlns="http://www.w3.org/2000/svg" xmlns:xlink="http://www.w3.org/1999/xlink" width="500" zoomAndPan="magnify" viewBox="0 0 375 374.999991" height="500" preserveAspectRatio="xMidYMid meet" version="1.0"><defs><clipPath id="887afa5c76"><path d="M 71 47 L 313 47 L 313 337.5 L 71 337.5 Z M 71 47 " clip-rule="nonzero"/></clipPath><clipPath id="e0d932be11"><path d="M 62.0625 37.5 L 304 37.5 L 304 328 L 62.0625 328 Z M 62.0625 37.5 " clip-rule="nonzero"/></clipPath></defs><g clip-path="url(#887afa5c76)"><path fill="#e6e7e8" d="M 285.90625 47.335938 L 99.074219 47.335938 C 84.140625 47.335938 71.984375 59.472656 71.984375 74.386719 L 71.984375 260.933594 C 71.984375 275.847656 84.140625 287.984375 99.074219 287.984375 L 138.746094 287.984375 C 140.96875 315.65625 164.214844 337.5 192.488281 337.5 C 220.765625 337.5 244.011719 315.65625 246.234375 287.984375 L 285.90625 287.984375 C 300.839844 287.984375 312.996094 275.847656 312.996094 260.933594 L 312.996094 74.386719 C 312.996094 59.472656 300.839844 47.335938 285.90625 47.335938 Z M 285.90625 47.335938 " fill-opacity="1" fill-rule="nonzero"/></g><path fill="#d4fbff" d="M 276.050781 275.6875 L 89.222656 275.6875 C 75.621094 275.6875 64.597656 264.679688 64.597656 251.097656 L 64.597656 64.550781 C 64.597656 50.96875 75.621094 39.960938 89.222656 39.960938 L 276.050781 39.960938 C 289.652344 39.960938 300.679688 50.96875 300.679688 64.550781 L 300.679688 251.097656 C 300.679688 264.679688 289.652344 275.6875 276.050781 275.6875 Z M 276.050781 275.6875 " fill-opacity="1" fill-rule="nonzero"/><path fill="#ffffff" d="M 276.050781 39.960938 L 89.222656 39.960938 C 75.621094 39.960938 64.597656 50.96875 64.597656 64.550781 L 64.597656 71.925781 C 64.597656 58.34375 75.621094 47.335938 89.222656 47.335938 L 276.050781 47.335938 C 289.652344 47.335938 300.679688 58.34375 300.679688 71.925781 L 300.679688 64.550781 C 300.679688 50.96875 289.652344 39.960938 276.050781 39.960938 Z M 276.050781 39.960938 " fill-opacity="1" fill-rule="nonzero"/><path fill="#0089ef" d="M 273.738281 88.898438 C 270.902344 88.898438 268.605469 86.605469 268.605469 83.773438 L 268.605469 70.960938 L 255.773438 70.960938 C 252.9375 70.960938 250.640625 68.667969 250.640625 65.835938 C 250.640625 63.007812 252.9375 60.714844 255.773438 60.714844 L 273.738281 60.714844 C 276.570312 60.714844 278.867188 63.007812 278.867188 65.835938 L 278.867188 83.773438 C 278.867188 86.605469 276.570312 88.898438 273.738281 88.898438 Z M 273.738281 88.898438 " fill-opacity="1" fill-rule="nonzero"/><path fill="#0089ef" d="M 91.542969 88.898438 C 94.375 88.898438 96.671875 86.605469 96.671875 83.773438 L 96.671875 70.960938 L 109.503906 70.960938 C 112.339844 70.960938 114.636719 68.667969 114.636719 65.835938 C 114.636719 63.007812 112.339844 60.714844 109.503906 60.714844 L 91.542969 60.714844 C 88.707031 60.714844 86.410156 63.007812 86.410156 65.835938 L 86.410156 83.773438 C 86.410156 86.605469 88.707031 88.898438 91.542969 88.898438 Z M 91.542969 88.898438 " fill-opacity="1" fill-rule="nonzero"/><path fill="#0089ef" d="M 273.738281 226.75 C 270.902344 226.75 268.605469 229.042969 268.605469 231.871094 L 268.605469 244.683594 L 255.773438 244.683594 C 252.9375 244.683594 250.640625 246.980469 250.640625 249.808594 C 250.640625 252.640625 252.9375 254.933594 255.773438 254.933594 L 273.738281 254.933594 C 276.570312 254.933594 278.867188 252.640625 278.867188 249.808594 L 278.867188 231.871094 C 278.867188 229.042969 276.570312 226.75 273.738281 226.75 Z M 273.738281 226.75 " fill-opacity="1" fill-rule="nonzero"/><path fill="#0089ef" d="M 91.542969 226.75 C 94.375 226.75 96.671875 229.042969 96.671875 231.871094 L 96.671875 244.683594 L 109.503906 244.683594 C 112.339844 244.683594 114.636719 246.980469 114.636719 249.808594 C 114.636719 252.640625 112.339844 254.933594 109.503906 254.933594 L 91.542969 254.933594 C 88.707031 254.933594 86.410156 252.640625 86.410156 249.808594 L 86.410156 231.871094 C 86.410156 229.042969 88.707031 226.75 91.542969 226.75 Z M 91.542969 226.75 " fill-opacity="1" fill-rule="nonzero"/><path fill="#ffd7e5" d="M 224.460938 231.097656 C 220.648438 230.800781 217.253906 232.570312 215.199219 235.378906 L 215.132812 235.378906 L 215.132812 231.882812 C 215.132812 226.371094 211.101562 221.402344 205.601562 220.925781 C 199.394531 220.386719 194.195312 225.253906 194.195312 231.339844 C 194.195312 225.566406 189.503906 220.882812 183.722656 220.882812 C 178.960938 220.882812 174.988281 224.078125 173.714844 228.421875 L 173.714844 183.261719 C 173.714844 177.359375 168.925781 172.574219 163.015625 172.574219 C 157.101562 172.574219 152.3125 177.359375 152.3125 183.261719 L 152.3125 238.757812 C 151.320312 233.988281 147.425781 230.101562 142.445312 229.839844 C 136.273438 229.515625 131.167969 234.417969 131.167969 240.511719 L 131.167969 273.804688 C 131.167969 302.191406 154.210938 325.203125 182.640625 325.203125 C 211.066406 325.203125 234.113281 302.191406 234.113281 273.804688 L 234.113281 241.992188 C 234.113281 236.449219 230 231.523438 224.460938 231.097656 Z M 224.460938 231.097656 " fill-opacity="1" fill-rule="nonzero"/><g clip-path="url(#e0d932be11)"><path fill="#3a2c60" d="M 276.054688 37.5 L 89.222656 37.5 C 74.289062 37.5 62.132812 49.636719 62.132812 64.550781 L 62.132812 251.097656 C 62.132812 266.011719 74.289062 278.148438 89.222656 278.148438 L 128.894531 278.148438 C 131.117188 305.820312 154.363281 327.664062 182.640625 327.664062 C 210.914062 327.664062 234.160156 305.820312 236.382812 278.148438 L 276.054688 278.148438 C 290.988281 278.148438 303.144531 266.011719 303.144531 251.097656 L 303.144531 177.664062 C 303.144531 176.304688 302.042969 175.203125 300.679688 175.203125 C 299.320312 175.203125 298.21875 176.304688 298.21875 177.664062 L 298.21875 251.097656 C 298.21875 263.300781 288.277344 273.230469 276.054688 273.230469 L 236.570312 273.230469 L 236.570312 241.992188 C 236.570312 236.027344 232.722656 230.902344 227.425781 229.214844 C 240.609375 216.96875 248.226562 199.867188 248.226562 181.394531 L 248.226562 134.25 C 248.226562 118.445312 242.507812 103.179688 232.128906 91.273438 C 231.238281 90.25 229.679688 90.144531 228.65625 91.03125 C 227.628906 91.925781 227.523438 93.476562 228.414062 94.503906 C 238.011719 105.515625 243.300781 119.628906 243.300781 134.25 L 243.300781 181.394531 C 243.300781 200.378906 234.605469 217.792969 219.796875 229.222656 C 219 229.46875 218.222656 229.769531 217.492188 230.167969 C 217.28125 228.46875 216.738281 226.875 215.96875 225.425781 C 229.3125 215.332031 237.964844 199.363281 237.964844 181.394531 C 237.964844 180.035156 236.863281 178.933594 235.5 178.933594 C 234.140625 178.933594 233.039062 180.035156 233.039062 181.394531 C 233.039062 197.804688 225.121094 212.386719 212.914062 221.582031 C 211.394531 220.257812 209.601562 219.28125 207.613281 218.800781 C 219.707031 210.722656 227.703125 196.980469 227.703125 181.394531 L 227.703125 164.996094 C 227.703125 163.640625 226.601562 162.539062 225.238281 162.539062 C 223.875 162.539062 222.777344 163.640625 222.777344 164.996094 L 222.777344 181.394531 C 222.777344 200.675781 209.054688 216.78125 190.863281 220.582031 C 188.816406 219.222656 186.363281 218.425781 183.726562 218.425781 C 180.960938 218.425781 178.335938 219.332031 176.183594 220.894531 L 176.183594 215.496094 C 178.273438 215.902344 180.425781 216.136719 182.640625 216.136719 C 201.824219 216.136719 217.433594 200.550781 217.433594 181.394531 L 217.433594 134.25 C 217.433594 121.121094 210.152344 109.253906 198.429688 103.285156 C 197.214844 102.664062 195.734375 103.144531 195.117188 104.355469 C 194.5 105.566406 194.980469 107.046875 196.195312 107.664062 C 206.257812 112.789062 212.507812 122.976562 212.507812 134.25 L 212.507812 181.394531 C 212.507812 197.839844 199.109375 211.21875 182.640625 211.21875 C 180.421875 211.21875 178.261719 210.964844 176.183594 210.503906 L 176.183594 204.992188 C 178.242188 205.5625 180.398438 205.886719 182.640625 205.886719 C 196.164062 205.886719 207.167969 194.902344 207.167969 181.394531 L 207.167969 145.011719 C 207.167969 143.652344 206.070312 142.550781 204.707031 142.550781 C 203.34375 142.550781 202.246094 143.652344 202.246094 145.011719 L 202.246094 181.394531 C 202.246094 192.1875 193.449219 200.96875 182.640625 200.96875 C 180.375 200.96875 178.207031 200.558594 176.183594 199.84375 L 176.183594 194.046875 C 178.125 195.042969 180.308594 195.640625 182.640625 195.640625 C 190.503906 195.640625 196.90625 189.25 196.90625 181.394531 L 196.90625 160.382812 C 196.90625 159.027344 195.804688 157.925781 194.441406 157.925781 C 193.082031 157.925781 191.980469 159.027344 191.980469 160.382812 L 191.980469 181.394531 C 191.980469 186.535156 187.789062 190.722656 182.640625 190.722656 C 180.113281 190.722656 177.851562 189.695312 176.183594 188.0625 L 176.183594 183.261719 C 176.183594 180.1875 175.074219 177.394531 173.296875 175.152344 L 173.296875 142.960938 C 173.296875 141.605469 172.195312 140.503906 170.835938 140.503906 C 169.472656 140.503906 168.371094 141.605469 168.371094 142.960938 L 168.371094 171.28125 C 166.738281 170.546875 164.9375 170.121094 163.035156 170.121094 L 163.035156 134.25 C 163.035156 123.453125 171.828125 114.671875 182.640625 114.671875 C 193.449219 114.671875 202.246094 123.453125 202.246094 134.25 C 202.246094 135.605469 203.34375 136.710938 204.707031 136.710938 C 206.070312 136.710938 207.167969 135.605469 207.167969 134.25 C 207.167969 120.742188 196.164062 109.753906 182.640625 109.753906 C 169.113281 109.753906 158.109375 120.742188 158.109375 134.25 L 158.109375 171.082031 C 155.988281 171.9375 154.175781 173.351562 152.769531 175.105469 L 152.769531 154.746094 C 152.769531 153.386719 151.667969 152.285156 150.304688 152.285156 C 148.945312 152.285156 147.84375 153.386719 147.84375 154.746094 L 147.84375 181.390625 C 147.84375 185.445312 148.558594 189.328125 149.847656 192.941406 L 149.847656 204.367188 C 145.222656 197.796875 142.503906 189.851562 142.503906 181.390625 C 142.503906 180.035156 141.402344 178.933594 140.042969 178.933594 C 138.679688 178.933594 137.578125 180.035156 137.578125 181.390625 C 137.578125 193.125 142.226562 203.972656 149.847656 212.101562 L 149.847656 219.496094 C 139.09375 210.261719 132.238281 196.628906 132.238281 181.390625 L 132.238281 134.25 C 132.238281 132.894531 131.140625 131.789062 129.777344 131.789062 C 128.414062 131.789062 127.316406 132.894531 127.316406 134.25 L 127.316406 181.394531 C 127.316406 199.601562 136.199219 215.765625 149.847656 225.835938 L 149.847656 230.199219 C 148.035156 228.738281 145.847656 227.816406 143.503906 227.511719 C 130.308594 216.289062 121.976562 199.625 121.976562 181.394531 L 121.976562 163.972656 C 121.976562 162.613281 120.875 161.511719 119.511719 161.511719 C 118.152344 161.511719 117.050781 162.613281 117.050781 163.972656 L 117.050781 181.394531 C 117.050781 199.546875 124.675781 216.292969 137.023438 228.308594 C 135.484375 228.917969 134.050781 229.800781 132.804688 230.976562 C 130.160156 233.484375 128.703125 236.871094 128.703125 240.511719 L 128.703125 273.226562 L 89.222656 273.226562 C 77 273.226562 67.058594 263.296875 67.058594 251.09375 L 67.058594 64.550781 C 67.058594 52.347656 77 42.417969 89.222656 42.417969 L 276.050781 42.417969 C 288.273438 42.417969 298.214844 52.347656 298.214844 64.550781 L 298.214844 138.246094 C 298.214844 139.601562 299.316406 140.703125 300.679688 140.703125 C 302.039062 140.703125 303.140625 139.601562 303.140625 138.246094 L 303.140625 64.550781 C 303.144531 49.636719 290.988281 37.5 276.054688 37.5 Z M 133.632812 240.515625 C 133.632812 238.234375 134.542969 236.113281 136.199219 234.542969 C 137.746094 233.078125 139.742188 232.285156 141.867188 232.285156 C 142.019531 232.285156 142.167969 232.289062 142.316406 232.296875 C 145.914062 232.484375 148.984375 235.265625 149.851562 239.082031 L 149.851562 271.898438 C 149.851562 273.253906 150.953125 274.355469 152.316406 274.355469 C 153.675781 274.355469 154.777344 273.253906 154.777344 271.898438 L 154.777344 183.261719 C 154.777344 178.722656 158.476562 175.03125 163.019531 175.03125 C 167.566406 175.03125 171.261719 178.722656 171.261719 183.261719 L 171.269531 248.039062 C 171.269531 249.394531 172.371094 250.496094 173.730469 250.496094 C 175.09375 250.496094 176.195312 249.394531 176.195312 248.039062 L 176.195312 228.832031 C 177.285156 225.542969 180.265625 223.34375 183.730469 223.34375 C 188.144531 223.34375 191.738281 226.929688 191.738281 231.339844 L 191.738281 248.039062 C 191.738281 249.394531 192.839844 250.496094 194.203125 250.496094 C 195.5625 250.496094 196.664062 249.394531 196.664062 248.039062 L 196.664062 231.339844 C 196.664062 229.105469 197.613281 226.953125 199.261719 225.441406 C 200.9375 223.90625 203.144531 223.183594 205.394531 223.375 C 209.480469 223.730469 212.679688 227.464844 212.679688 231.878906 L 212.679688 248.035156 C 212.679688 249.394531 213.78125 250.496094 215.144531 250.496094 C 216.507812 250.496094 217.605469 249.394531 217.605469 248.035156 L 217.605469 236.394531 C 219.273438 234.429688 221.695312 233.351562 224.28125 233.546875 C 228.414062 233.863281 231.652344 237.574219 231.652344 241.988281 L 231.652344 273.804688 C 231.652344 300.789062 209.667969 322.742188 182.644531 322.742188 C 155.625 322.742188 133.640625 300.789062 133.640625 273.804688 L 133.640625 240.515625 Z M 133.632812 240.515625 " fill-opacity="1" fill-rule="nonzero"/></g><path fill="#3a2c60" d="M 300.679688 146.3125 C 299.320312 146.3125 298.21875 147.414062 298.21875 148.769531 L 298.21875 168.070312 C 298.21875 169.429688 299.320312 170.53125 300.679688 170.53125 C 302.042969 170.53125 303.144531 169.429688 303.144531 168.070312 L 303.144531 148.769531 C 303.144531 147.414062 302.039062 146.3125 300.679688 146.3125 Z M 300.679688 146.3125 " fill-opacity="1" fill-rule="nonzero"/><path fill="#3a2c60" d="M 281.328125 65.835938 C 281.328125 61.65625 277.921875 58.253906 273.734375 58.253906 L 255.769531 58.253906 C 251.585938 58.253906 248.179688 61.65625 248.179688 65.835938 C 248.179688 70.019531 251.585938 73.421875 255.769531 73.421875 L 266.140625 73.421875 L 266.140625 83.773438 C 266.140625 87.957031 269.546875 91.355469 273.734375 91.355469 C 277.921875 91.355469 281.328125 87.957031 281.328125 83.773438 Z M 276.402344 83.773438 C 276.402344 85.246094 275.207031 86.4375 273.734375 86.4375 C 272.261719 86.4375 271.0625 85.246094 271.0625 83.773438 L 271.0625 70.960938 C 271.0625 69.605469 269.964844 68.503906 268.601562 68.503906 L 255.769531 68.503906 C 254.296875 68.503906 253.105469 67.308594 253.105469 65.835938 C 253.105469 64.367188 254.296875 63.171875 255.769531 63.171875 L 273.734375 63.171875 C 275.207031 63.171875 276.402344 64.367188 276.402344 65.835938 Z M 276.402344 83.773438 " fill-opacity="1" fill-rule="nonzero"/><path fill="#3a2c60" d="M 109.503906 58.253906 L 91.542969 58.253906 C 87.355469 58.253906 83.945312 61.65625 83.945312 65.835938 L 83.945312 83.773438 C 83.945312 87.957031 87.355469 91.355469 91.542969 91.355469 C 95.726562 91.355469 99.136719 87.957031 99.136719 83.773438 L 99.136719 73.421875 L 109.503906 73.421875 C 113.691406 73.421875 117.097656 70.019531 117.097656 65.835938 C 117.097656 61.65625 113.691406 58.253906 109.503906 58.253906 Z M 109.503906 68.503906 L 96.671875 68.503906 C 95.3125 68.503906 94.210938 69.605469 94.210938 70.960938 L 94.210938 83.773438 C 94.210938 85.246094 93.015625 86.4375 91.542969 86.4375 C 90.070312 86.4375 88.871094 85.246094 88.871094 83.773438 L 88.871094 65.835938 C 88.871094 64.367188 90.070312 63.171875 91.542969 63.171875 L 109.503906 63.171875 C 110.976562 63.171875 112.175781 64.367188 112.175781 65.835938 C 112.175781 67.308594 110.976562 68.503906 109.503906 68.503906 Z M 109.503906 68.503906 " fill-opacity="1" fill-rule="nonzero"/><path fill="#3a2c60" d="M 273.734375 224.289062 C 269.546875 224.289062 266.140625 227.691406 266.140625 231.871094 L 266.140625 242.226562 L 255.769531 242.226562 C 251.585938 242.226562 248.179688 245.625 248.179688 249.808594 C 248.179688 253.992188 251.585938 257.394531 255.769531 257.394531 L 273.734375 257.394531 C 277.921875 257.394531 281.328125 253.992188 281.328125 249.808594 L 281.328125 231.871094 C 281.328125 227.691406 277.921875 224.289062 273.734375 224.289062 Z M 276.402344 249.808594 C 276.402344 251.28125 275.207031 252.472656 273.734375 252.472656 L 255.769531 252.472656 C 254.296875 252.472656 253.105469 251.28125 253.105469 249.808594 C 253.105469 248.339844 254.296875 247.144531 255.769531 247.144531 L 268.601562 247.144531 C 269.964844 247.144531 271.0625 246.042969 271.0625 244.683594 L 271.0625 231.871094 C 271.0625 230.402344 272.261719 229.207031 273.734375 229.207031 C 275.207031 229.207031 276.402344 230.402344 276.402344 231.871094 Z M 276.402344 249.808594 " fill-opacity="1" fill-rule="nonzero"/><path fill="#3a2c60" d="M 91.542969 224.289062 C 87.355469 224.289062 83.945312 227.691406 83.945312 231.871094 L 83.945312 249.808594 C 83.945312 253.992188 87.355469 257.394531 91.542969 257.394531 L 109.503906 257.394531 C 113.691406 257.394531 117.097656 253.992188 117.097656 249.808594 C 117.097656 245.625 113.691406 242.226562 109.503906 242.226562 L 99.136719 242.226562 L 99.136719 231.871094 C 99.136719 227.691406 95.726562 224.289062 91.542969 224.289062 Z M 109.503906 247.144531 C 110.976562 247.144531 112.175781 248.339844 112.175781 249.808594 C 112.175781 251.28125 110.976562 252.472656 109.503906 252.472656 L 91.542969 252.472656 C 90.070312 252.472656 88.871094 251.28125 88.871094 249.808594 L 88.871094 231.871094 C 88.871094 230.402344 90.070312 229.207031 91.542969 229.207031 C 93.015625 229.207031 94.210938 230.402344 94.210938 231.871094 L 94.210938 244.683594 C 94.210938 246.042969 95.3125 247.144531 96.671875 247.144531 Z M 109.503906 247.144531 " fill-opacity="1" fill-rule="nonzero"/><path fill="#3a2c60" d="M 182.640625 68.757812 C 146.472656 68.757812 117.050781 98.140625 117.050781 134.25 L 117.050781 155.261719 C 117.050781 156.617188 118.152344 157.71875 119.511719 157.71875 C 120.875 157.71875 121.976562 156.617188 121.976562 155.261719 L 121.976562 134.25 C 121.976562 100.847656 149.1875 73.675781 182.640625 73.675781 C 197.296875 73.675781 211.445312 78.964844 222.480469 88.574219 C 223.503906 89.464844 225.058594 89.359375 225.957031 88.335938 C 226.847656 87.308594 226.742188 85.757812 225.714844 84.867188 C 213.785156 74.480469 198.488281 68.757812 182.640625 68.757812 Z M 182.640625 68.757812 " fill-opacity="1" fill-rule="nonzero"/><path fill="#3a2c60" d="M 225.234375 156.183594 C 226.597656 156.183594 227.699219 155.082031 227.699219 153.722656 L 227.699219 134.25 C 227.699219 109.441406 207.484375 89.257812 182.640625 89.257812 C 157.792969 89.257812 137.578125 109.441406 137.578125 134.25 L 137.578125 172.171875 C 137.578125 173.527344 138.679688 174.628906 140.042969 174.628906 C 141.402344 174.628906 142.503906 173.527344 142.503906 172.171875 L 142.503906 134.25 C 142.503906 112.152344 160.507812 94.175781 182.640625 94.175781 C 204.769531 94.175781 222.773438 112.152344 222.773438 134.25 L 222.773438 153.722656 C 222.773438 155.082031 223.875 156.183594 225.234375 156.183594 Z M 225.234375 156.183594 " fill-opacity="1" fill-rule="nonzero"/><path fill="#3a2c60" d="M 147.84375 134.25 L 147.84375 145.011719 C 147.84375 146.367188 148.945312 147.46875 150.304688 147.46875 C 151.667969 147.46875 152.769531 146.367188 152.769531 145.011719 L 152.769531 134.25 C 152.769531 117.804688 166.167969 104.425781 182.640625 104.425781 C 184 104.425781 185.101562 103.324219 185.101562 101.964844 C 185.101562 100.609375 184 99.507812 182.640625 99.507812 C 163.453125 99.507812 147.84375 115.09375 147.84375 134.25 Z M 147.84375 134.25 " fill-opacity="1" fill-rule="nonzero"/><path fill="#3a2c60" d="M 182.640625 79.007812 C 169.808594 79.007812 157.304688 83.492188 147.429688 91.636719 C 146.378906 92.503906 146.234375 94.050781 147.101562 95.101562 C 147.964844 96.148438 149.515625 96.296875 150.566406 95.429688 C 159.554688 88.011719 170.949219 83.925781 182.636719 83.925781 C 210.425781 83.925781 233.035156 106.503906 233.035156 134.25 C 233.035156 135.605469 234.136719 136.710938 235.5 136.710938 C 236.859375 136.710938 237.960938 135.605469 237.960938 134.25 C 237.964844 103.789062 213.144531 79.007812 182.640625 79.007812 Z M 182.640625 79.007812 " fill-opacity="1" fill-rule="nonzero"/><path fill="#3a2c60" d="M 145.425781 96.683594 C 144.425781 95.765625 142.867188 95.828125 141.945312 96.828125 C 134.210938 105.207031 129.328125 115.578125 127.816406 126.8125 C 127.632812 128.160156 128.582031 129.398438 129.925781 129.582031 C 130.039062 129.59375 130.148438 129.601562 130.257812 129.601562 C 131.472656 129.601562 132.53125 128.703125 132.695312 127.46875 C 134.074219 117.234375 138.523438 107.792969 145.566406 100.160156 C 146.488281 99.160156 146.425781 97.601562 145.425781 96.683594 Z M 145.425781 96.683594 " fill-opacity="1" fill-rule="nonzero"/><path fill="#3a2c60" d="M 235.5 141.527344 C 234.140625 141.527344 233.039062 142.628906 233.039062 143.988281 L 233.039062 173.710938 C 233.039062 175.066406 234.140625 176.167969 235.5 176.167969 C 236.863281 176.167969 237.964844 175.066406 237.964844 173.710938 L 237.964844 143.988281 C 237.964844 142.628906 236.863281 141.527344 235.5 141.527344 Z M 235.5 141.527344 " fill-opacity="1" fill-rule="nonzero"/><path fill="#3a2c60" d="M 194.441406 154.132812 C 195.804688 154.132812 196.90625 153.03125 196.90625 151.675781 L 196.90625 134.253906 C 196.90625 126.398438 190.503906 120.007812 182.640625 120.007812 C 174.773438 120.007812 168.371094 126.398438 168.371094 134.253906 C 168.371094 135.609375 169.472656 136.710938 170.835938 136.710938 C 172.195312 136.710938 173.296875 135.609375 173.296875 134.253906 C 173.296875 129.109375 177.488281 124.925781 182.640625 124.925781 C 187.789062 124.925781 191.980469 129.109375 191.980469 134.253906 L 191.980469 151.675781 C 191.980469 153.03125 193.082031 154.132812 194.441406 154.132812 Z M 194.441406 154.132812 " fill-opacity="1" fill-rule="nonzero"/><path fill="#3a2c60" d="M 180.6875 135.785156 L 180.6875 182.417969 C 180.6875 183.777344 181.789062 184.878906 183.152344 184.878906 C 184.511719 184.878906 185.613281 183.777344 185.613281 182.417969 L 185.613281 135.785156 C 185.613281 134.429688 184.511719 133.328125 183.152344 133.328125 C 181.789062 133.328125 180.6875 134.429688 180.6875 135.785156 Z M 180.6875 135.785156 " fill-opacity="1" fill-rule="nonzero"/></svg>