<svg xmlns="http://www.w3.org/2000/svg" xmlns:xlink="http://www.w3.org/1999/xlink" width="500" zoomAndPan="magnify" viewBox="0 0 375 374.999991" height="500" preserveAspectRatio="xMidYMid meet" version="1.0"><defs><clipPath id="8fb52a4b5d"><path d="M 31 37.5 L 295 37.5 L 295 127 L 31 127 Z M 31 37.5 " clip-rule="nonzero"/></clipPath></defs><path stroke-linecap="butt" transform="matrix(1.928521, 0, 0, 1.928521, 4.301684, 32.877284)" fill="none" stroke-linejoin="miter" d="M 173.752326 154.000805 L 120.774961 154.000805 L 60.771082 82.155761 L 60.771082 154.000805 L 16.227964 154.000805 L 16.227964 47.825294 L 69.205329 47.825294 L 129.211234 119.299669 L 129.211234 47.825294 L 173.752326 47.825294 Z M 173.752326 154.000805 " stroke="#000000" stroke-width="4.451341" stroke-opacity="1" stroke-miterlimit="4"/><g clip-path="url(#8fb52a4b5d)"><path fill="#000000" d="M 35.585938 126.378906 L 163.023438 43.933594 C 163.023438 43.933594 290.464844 126.378906 290.464844 126.378906 C 291.785156 127.234375 293.550781 126.855469 294.402344 125.535156 C 295.253906 124.21875 294.878906 122.453125 293.558594 121.601562 C 293.558594 121.601562 164.570312 38.15625 164.570312 38.15625 C 163.628906 37.546875 162.417969 37.546875 161.480469 38.15625 C 161.480469 38.15625 32.492188 121.601562 32.492188 121.601562 C 31.175781 122.453125 30.796875 124.21875 31.652344 125.535156 C 32.503906 126.855469 34.265625 127.234375 35.585938 126.378906 Z M 35.585938 126.378906 " fill-opacity="1" fill-rule="evenodd"/></g><path fill="#000000" d="M 194.53125 60.792969 L 217.972656 45.625 C 217.972656 45.625 338.460938 124.667969 338.460938 124.667969 C 339.773438 125.53125 341.539062 125.164062 342.402344 123.847656 C 343.261719 122.535156 342.894531 120.769531 341.582031 119.910156 C 341.582031 119.910156 219.546875 39.847656 219.546875 39.847656 C 218.605469 39.230469 217.386719 39.226562 216.441406 39.839844 C 216.441406 39.839844 206.0625 46.550781 191.441406 56.011719 C 190.121094 56.867188 189.742188 58.628906 190.597656 59.949219 C 191.449219 61.269531 193.214844 61.644531 194.53125 60.792969 Z M 194.53125 60.792969 " fill-opacity="1" fill-rule="evenodd"/><path fill="#000000" d="M 104.808594 79.039062 L 104.808594 57.539062 C 104.808594 55.976562 103.535156 54.707031 101.96875 54.707031 L 78.257812 54.707031 C 76.683594 54.707031 75.417969 55.976562 75.417969 57.539062 L 75.417969 95.382812 C 75.417969 96.945312 76.683594 98.21875 78.257812 98.21875 C 79.820312 98.21875 81.09375 96.945312 81.09375 95.382812 L 81.09375 60.375 C 81.09375 60.375 99.132812 60.375 99.132812 60.375 L 99.132812 79.039062 C 99.132812 80.601562 100.40625 81.875 101.96875 81.875 C 103.535156 81.875 104.808594 80.601562 104.808594 79.039062 Z M 104.808594 79.039062 " fill-opacity="1" fill-rule="evenodd"/><path stroke-linecap="round" transform="matrix(1.738842, 0, 0, 1.738842, 33.30191, 120.458546)" fill="none" stroke-linejoin="miter" d="M 4.000308 4.000087 L 173.999447 4.000087 " stroke="#000000" stroke-width="8" stroke-opacity="1" stroke-miterlimit="4"/></svg>